# xmcd
#
# Track frame offsets: 
#        150
#        15931
#        30916
#        41273
#        55889
#        75429
#        87955
#        101523
#        114555
#        128990
#        142017
#        158112
#        175749
#        189608
#        204356
#        212504
#        225842
#        231852
#        240594
#        246383
#
# Disc length: 3505 seconds
#
# Revision: 0
# Processed by: cddbd v1.5.1PL0 Copyright (c) Steve Scherf et al.
# Submitted via: ExactAudioCopy v0.95a5
#
DISCID=f20daf14
DTITLE=Grupo Tradicao - Edicao Especial
DYEAR=1900
DGENRE=Sertaneja
TTITLE0=Barquinho
TTITLE1=E Melhor ce Voltar pra Mim
TTITLE2=Hei
TTITLE3=Bendito Seja
TTITLE4=Habanera das Meninas Carinhosas
TTITLE5=Eu Ja Biquei
TTITLE6=Ta Bao
TTITLE7=Ajoelha e Chora
TTITLE8=Namoro de Estancia
TTITLE9=Aquela do Elefante
TTITLE10=Cavalo Zaino
TTITLE11=Brasileira
TTITLE12=Tiratum
TTITLE13=Maria Fumaca
TTITLE14=Sessenta Dias Apaixonado
TTITLE15=Pe com Pe
TTITLE16=Bailezito
TTITLE17=Nosso Balanco
TTITLE18=Eu so Quero um Xodo
TTITLE19=Pirata
EXTD=
EXTT0=
EXTT1=
EXTT2=
EXTT3=
EXTT4=
EXTT5=
EXTT6=
EXTT7=
EXTT8=
EXTT9=
EXTT10=
EXTT11=
EXTT12=
EXTT13=
EXTT14=
EXTT15=
EXTT16=
EXTT17=
EXTT18=
EXTT19=
PLAYORDER=
